#!OML:ASF E:/inclinewalkrobotboard/Project1/Captureday1/Session1/subject1.ASF
:FULLY-SPECIFIED
:DEGREES
263
root 0 0 0 -2.301047872918078 -1.180580791461818 -0.4986698843770738
lowerback 10.201385416316986 -0.3354370313627675 -1.4751067628214862
upperback 0.3372547289917323 -0.55370895214587 1.4137914650162178
thorax -5.299548829913272 -0.22757883041066063 2.3835755340732145
lowerneck -15.396053812229407 -2.6745457207445447 -1.6855096077616112
upperneck 18.24978579563576 -3.374042227188527 0.8177542208437858
head 8.339464344816626 -1.6548135004551257 0.16098707348516345
rclavicle -2.0271926325553602E-16 -9.798709726478858E-17
rhumerus -20.068091792260294 -7.752095644628609 -67.82365688131257
rradius 59.20881320705081
rwrist -7.609090834728091
rhand -13.535455597500974 -7.629489418327601
rfingers 7.125019999999871
rthumb 12.600208266959726 -36.88971973217248
lclavicle -7.111765611621624E-16 -3.550897164261939E-16
lhumerus -38.739087284016456 0.14752204003465622 83.21625454893949
lradius 37.19123822375891
lwrist 3.0889247130594457
lhand -20.310885775964167 3.5133109523866075
lfingers 7.125019999999894
lthumb 5.959940692861165 33.06720290366846
rfemur -9.23550255728253 3.4816453357580563 18.90760123238898
rtibia 29.106589642497383
rfoot -5.107171626832702 -4.39958390210497
rtoes 2.998919452868586
lfemur -14.197686082804768 -1.313255439801742 -14.885793737664228
ltibia 39.03627487453993
lfoot -6.839589377765069 -1.4959161738226738
ltoes -14.106564143981512
264
root 0 0 0 -2.169981624804643 -2.5854556460830844 -2.775852054970267
lowerback 10.20179642650585 0.5586755773019164 0.9492105443896617
upperback 0.27312365662329346 0.9190078729980258 1.4839806135556062
thorax -5.35761782684128 0.4426740854731278 0.8830159346220187
lowerneck -15.419970875807 -2.900225870162398 -1.5054897102803944
upperneck 18.24025761997479 -3.758026717933036 0.9158869319952305
head 8.343650708259428 -1.8118225244285449 0.11931420061842968
rclavicle -1.9560327628738492E-16 -9.1821538788382E-17
rhumerus -19.931629493974384 -7.606725918830764 -67.68224013106656
rradius 59.6477685851232
rwrist -7.77121238427167
rhand -13.479276333507668 -8.034231119340516
rfingers 7.125019999999869
rthumb 12.655808793623024 -37.28792858361241
lclavicle -7.175386412024933E-16 -3.532765554281379E-16
lhumerus -38.88353663103915 0.15586550218058962 83.23006699163398
lradius 37.38327244439647
lwrist 3.0290642925373636
lhand -20.163559702875972 3.0638747323268856
lfingers 7.125019999999892
lthumb 6.099944265528915 32.607756009337955
rfemur -7.585214165599703 3.9846557615926272 19.7367798901715
rtibia 26.6382986359949
rfoot -6.681112966682038 -4.376823971246767
rtoes 2.295130747099095
lfemur -16.9002107385804 -0.958314171031017 -13.777307968179448
ltibia 41.58218312629851
lfoot -5.414501236972447 -2.0043272390947395
ltoes -13.326859701169678
265
root 0 0 0 -1.9276845471437847 -4.773005206780493 -6.291358577992603
lowerback 10.17786050691827 1.9913825876324913 4.684071288230182
upperback 0.1443206174846507 3.2628200063443042 1.5429715737928527
thorax -5.462663054418081 1.510979394688054 -1.4879888222307764
lowerneck -15.32915298093459 -3.2635592544319825 -1.204082317494064
upperneck 17.98634422368845 -4.39617045428793 1.1500283178604889
head 8.282807980849684 -2.0688743669832976 0.07693387053444978
rclavicle -1.7712755654585642E-16 -8.048768794049401E-17
rhumerus -19.5949694063236 -7.247181531052302 -67.32653357838521
rradius 60.756253576926284
rwrist -8.173256222154873
rhand -13.333215521220604 -9.067308244471953
rfingers 7.1250199999998625
rthumb 12.797844368841888 -38.30371846803414
lclavicle -7.56594841084385E-16 -3.602606426492609E-16
lhumerus -39.21070259773374 0.18566897972176347 83.25387363174814
lradius 37.80086257772024
lwrist 2.890115598949652
lhand -19.83639693430835 2.068309028411152
lfingers 7.125019999999886
lthumb 6.408224876339442 31.59316877205172
rfemur -6.2620410912303495 4.321729429617692 20.195247922517673
rtibia 24.63529952134862
rfoot -7.763746416902153 -4.311018588965431
rtoes 1.7612877305354417
lfemur -17.73782825564667 -0.9774591842443012 -13.119870649680946
ltibia 41.736346673475836
lfoot -5.610848679573532 -1.581196226897558
ltoes -14.587781884786388
266
root 0 0 0 -1.824484488745723 -5.314663060646664 -7.207517872691399
lowerback 10.138545132025083 2.3809151559698503 5.599808052278136
upperback 0.09477389133882391 3.897889969451373 1.51396798821643
thorax -5.500399571271237 1.7984659255499356 -2.1165910520723177
lowerneck -15.09456124093902 -3.3419933000277604 -1.063296122486403
upperneck 17.756081322350312 -4.557568231875815 1.2543294582898272
head 8.159703822713903 -2.1324832124305066 0.07687166804936502
rclavicle -1.6047892238826692E-16 -6.49514030677226E-17
rhumerus -19.30209056789985 -6.9358704548666585 -67.02462517643204
rradius 61.70278094266418
rwrist -8.523547455804698
rhand -13.20821669173522 -9.955517227259687
rfingers 7.125019999999857
rthumb 12.918470570160633 -39.17493083874495
lclavicle -8.065758600639453E-16 -3.667642711072261E-16
lhumerus -39.4993089034215 0.23415512958698806 83.2743254814992
lradius 38.119437648455765
lwrist 2.7631057220123907
lhand -19.56250857334262 1.2423173571623938
lfingers 7.125019999999881
lthumb 6.666369375523546 30.750304166044472
rfemur -5.339259461704365 4.3856568258256985 20.084300810037043
rtibia 23.48696673346013
rfoot -8.005964927620742 -4.1205854108517
rtoes 1.5521122561069522
lfemur -17.641880739493338 -1.1877660522617495 -12.733440946616614
ltibia 40.63346999402087
lfoot -6.5583004328192445 -0.7104092878395081
ltoes -16.64572312126694
267
root 0 0 0 -1.7770813088479547 -5.370596315740452 -7.331329660803082
lowerback 10.115858408573578 2.4443431994079248 5.688229735039778
upperback 0.0732524333455234 3.9956701155177354 1.4848555491000934
thorax -5.51467751334097 1.8416401158454914 -2.208376976576721
lowerneck -14.929516124197525 -3.344311176751079 -1.0049071716117068
upperneck 17.581440116577994 -4.580102063069616 1.300735830544913
head 8.078192759290493 -2.1388363175294205 0.08538548412596203
rclavicle -1.5027378180990284E-16 -5.303810774011552E-17
rhumerus -19.140435001015625 -6.75791023647471 -66.85746308978689
rradius 62.2321852918141
rwrist -8.721113392057555
rhand -13.139937888854496 -10.448836372615299
rfingers 7.1250199999998545
rthumb 12.98603663993461 -39.65912737423529
lclavicle -8.409858443524594E-16 -3.7960576909251364E-16
lhumerus -39.7553370641281 0.27621826318548903 83.29653482344256
lradius 38.40121366552232
lwrist 2.6460966160800052
lhand -19.314340145812178 0.49258950744611774
lfingers 7.125019999999877
lthumb 6.900974486862704 29.99244937985251
rfemur -4.659629831963295 4.0174936446330065 18.852527933748945
rtibia 22.950039028162855
rfoot -6.973683453862209 -3.6290907160524855
rtoes 1.7624692277050293
lfemur -16.88166937307263 -1.506241121085225 -12.639295587790933
ltibia 38.727689465653214
lfoot -7.923200793202286 0.35851185466979185
ltoes -18.852461578776218
268
root 0 0 0 -1.746498018358667 -5.370565929914109 -7.352778701138891
lowerback 10.104122521120798 2.463512693848621 5.681589342442057
upperback 0.05967632708682985 4.021720883005585 1.4635274540614385
thorax -5.523271247892386 1.8523947402074397 -2.2300008316223225
lowerneck -14.813994883878406 -3.3403396146240754 -0.9699159768763672
upperneck 17.449890315543936 -4.586229365205268 1.3313249064750976
head 8.024085050039341 -2.1387629349767914 0.09296925413764318
rclavicle -1.494979302210868E-16 -4.715284921614352E-17
rhumerus -19.11008885323442 -6.712749896967271 -66.82164295058718
rradius 62.357172148865544
rwrist -8.764195063547872
rhand -13.122503809779538 -10.573940601470968
rfingers 7.125019999999854
rthumb 13.003841138353172 -39.7820603992028
lclavicle -8.588923627086058E-16 -3.9141002083448466E-16
lhumerus -40.024924412365046 0.30077279309251226 83.3224838060273
lradius 38.74566897527998
lwrist 2.5255886553166476
lhand -19.03641330370039 -0.3535072399793542
lfingers 7.125019999999871
lthumb 7.16407551759358 29.13517483664912
rfemur -4.357673118721834 3.5134294929969774 17.39768468368073
rtibia 23.100684261057495
rfoot -5.476333516442821 -3.11410171078536
rtoes 2.2149723601684146
lfemur -15.92965021693098 -1.7782670644680143 -12.755748356577767
ltibia 37.020809474619256
lfoot -9.094684942699688 1.1743883793949887
ltoes -20.492293860157123
269
root 0 0 0 -1.7265696377587458 -5.353269711585957 -7.3386152088643275
lowerback 10.097971419284827 2.465997344667171 5.646953113030529
upperback 0.050717252100589694 4.021555034367535 1.44822018892385
thorax -5.5292884517228655 1.8515770750922744 -2.226637456662284
lowerneck -14.734812024301085 -3.3355514134972486 -0.9485906365099599
upperneck 17.35552886088697 -4.5868843008427485 1.3520319869445558
head 7.988228708636926 -2.137000073612688 0.09903911334145937
rclavicle -1.5355521645087046E-16 -4.756831819878552E-17
rhumerus -19.176012876646137 -6.7720107508994705 -66.88751303739446
rradius 62.16520023122907
rwrist -8.690693457258986
rhand -13.146269392748781 -10.404311521054016
rfingers 7.125019999999855
rthumb 12.981128965724903 -39.61562926982226
lclavicle -8.7112873039150925E-16 -4.015965885663006E-16
lhumerus -40.24648035654958 0.31758234329197 83.34393785385278
lradius 39.03753065992257
lwrist 2.4268589205512727
lhand -18.80499360160708 -1.0595813106437628
lfingers 7.125019999999866
lthumb 7.383328728372091 28.420128274467963
rfemur -4.559828748793915 2.9994365199076922 16.165272682912004
rtibia 24.114833283411294
rfoot -3.873113848441479 -2.717654378251143
rtoes 2.8285709756490847
lfemur -15.048959994682349 -1.9714687350992814 -12.980628994687708
ltibia 35.753540875221105
lfoot -9.9177811376966 1.675142447673542
ltoes -21.44983384146306
270
root 0 0 0 -1.712675219740424 -5.330310521186533 -7.310734170341332
lowerback 10.094363735782764 2.4619260069786417 5.6033733942417525
upperback 0.04415387233974866 4.011482964478247 1.436061422493946
thorax -5.534196742478573 1.8464733619468197 -2.2137960404514816
lowerneck -14.675869678743757 -3.331037694668898 -0.934415254852512
upperneck 17.28313277959357 -4.585704450218875 1.36754443296189
head 7.961631387808486 -2.134961221958452 0.10415769793382013
rclavicle -1.5986331076665338E-16 -5.1945087433153093E-17
rhumerus -19.28202531622465 -6.878993233671263 -66.99849240908972
rradius 61.82943999441862
rwrist -8.566335527234372
rhand -13.189332863839693 -10.098215830304856
rfingers 7.125019999999857
rthumb 12.939360588849922 -39.31540775159893
lclavicle -8.787870804088533E-16 -4.0876958651151923E-16
lhumerus -40.38958840522482 0.3271690316925851 83.35775561006577
lradius 39.22903762097144
lwrist 2.3633957853852756
lhand -18.654685427705257 -1.5189957423493397
lfingers 7.125019999999863
lthumb 7.525889054077288 27.955363600501904
rfemur -5.15518684845187 2.5903941999480247 15.380919528362117
rtibia 25.58538226461191
rfoot -2.5530818617748685 -2.5169203689018884
rtoes 3.4186469876191627
lfemur -14.284214665689031 -2.110212271593775 -13.239584741115662
ltibia 34.80516847405255
lfoot -10.498400771809974 1.9791408905030652
ltoes -21.977761913294994
